<svg data-logo="logo" xmlns="http://www.w3.org/2000/svg" viewBox="0 0 295.510009765625 41.2802734375" width="295.510009765625" height="41.2802734375">
  <style>
    .theme-icon {
      fill: #000000; /* Default dark color for light backgrounds */
    }
    @media (prefers-color-scheme: dark) {
      .theme-icon {
        fill: #FFFFFF; /* Light color for dark backgrounds */
      }
    }
  </style>
  <g id="logogram" transform="
    translate(0, 0.64013671875)
    rotate(0 20.5 20)
  ">
    <path class="theme-icon" d="M38.4048 12.0774C37.6544 10.3617 36.6614 8.76277 35.4559 7.32972C33.674 5.14804 31.4503 3.36847 28.931 2.10813C26.4118 0.847806 23.6542 0.135282 20.8397 0.0174595C18.0253 -0.100363 15.2178 0.379184 12.602 1.42456C9.98633 2.46993 7.62162 4.05741 5.66361 6.08253C3.70558 8.10763 2.19862 10.5245 1.24193 13.174C0.285241 15.8234 -0.099514 18.6455 0.113012 21.4543C0.325553 24.2632 1.13052 26.9952 2.47498 29.4705C3.81943 31.946 5.67288 34.1085 7.91332 35.8159C9.3509 36.9334 10.9394 37.8418 12.6315 38.5142C15.0039 39.4864 17.543 39.9871 20.1069 39.9886C25.3993 39.9769 30.4711 37.8673 34.2107 34.1222C37.9502 30.3772 40.0523 25.3023 40.0561 20.0099C40.06 17.28 39.4978 14.579 38.4048 12.0774ZM20.0922 4.07119C22.3947 4.07095 24.6693 4.57418 26.7567 5.54563C26.2477 5.76557 25.7125 5.91919 25.1643 6.00272C23.3604 6.26383 21.6895 7.10128 20.4006 8.39009C19.1118 9.67888 18.2744 11.3499 18.0132 13.1538C17.8987 14.1654 17.4385 15.1065 16.7106 15.8184C15.9826 16.5302 15.0315 16.969 14.0175 17.061C12.2137 17.3222 10.5426 18.1596 9.25384 19.4484C7.96505 20.7373 7.12758 22.4082 6.86647 24.2121C6.77806 25.174 6.36765 26.078 5.70166 26.7776C4.55256 24.3496 4.03635 21.6703 4.20108 18.9892C4.3658 16.308 5.2061 13.7121 6.64378 11.443C8.08145 9.17393 10.0698 7.3054 12.4238 6.01133C14.7777 4.71726 17.4208 4.03971 20.1069 4.0417L20.0922 4.07119ZM7.89858 30.331C8.07551 30.1688 8.25244 30.0214 8.42938 29.8444C9.74111 28.5727 10.5831 26.8939 10.818 25.082C10.9132 24.0634 11.3679 23.1121 12.1007 22.3985C12.8059 21.6645 13.755 21.2135 14.7695 21.1305C16.5733 20.8694 18.2443 20.0319 19.5331 18.7431C20.8219 17.4543 21.6594 15.7833 21.9205 13.9794C21.9843 12.9142 22.4414 11.9105 23.2033 11.1633C23.9259 10.4435 24.884 10.0089 25.9015 9.93946C27.5586 9.71147 29.1041 8.97476 30.3248 7.83103C31.7148 8.98414 32.8923 10.3713 33.8045 11.93C33.7485 12.0056 33.6842 12.0749 33.6128 12.1364C32.9091 12.8769 31.9612 13.3378 30.9441 13.4339C29.1383 13.6905 27.4648 14.5265 26.1752 15.816C24.8856 17.1057 24.0496 18.7792 23.793 20.5849C23.6891 21.5999 23.2375 22.5479 22.5147 23.268C21.7918 23.9882 20.8422 24.4363 19.8268 24.5364C18.0177 24.7955 16.3405 25.6314 15.0442 26.9196C13.748 28.208 12.9018 29.88 12.6315 31.6875C12.5522 32.4081 12.3046 33.1 11.909 33.7075C10.3963 32.8092 9.0414 31.6686 7.89858 30.331ZM20.0922 36.0223C18.5961 36.024 17.107 35.8155 15.6689 35.4031C16.1609 34.486 16.4807 33.4865 16.6125 32.4542C16.7159 31.4414 17.1654 30.4953 17.8853 29.7754C18.6051 29.0556 19.5512 28.6061 20.564 28.5027C22.3705 28.2445 24.0449 27.4084 25.3366 26.1193C26.6282 24.8303 27.4679 23.1575 27.7298 21.3517C27.8332 20.3389 28.2827 19.3927 29.0025 18.6729C29.7224 17.9531 30.6685 17.5035 31.6813 17.4002C33.0407 17.2234 34.3365 16.7172 35.4559 15.9257C36.0775 18.2817 36.1511 20.7488 35.6711 23.1376C35.1912 25.5265 34.1703 27.7739 32.687 29.707C31.2037 31.64 29.2974 33.2078 27.1141 34.2897C24.9309 35.3717 22.5289 35.9392 20.0922 35.9486V36.0223Z" />
  </g>
  <g id="logotype" transform="translate(47, 0.5)">
    <path class="theme-icon" d="M17.64 33.38L17.64 33.38Q14.58 33.38 12.31 32.44Q10.05 31.50 8.79 29.65Q7.52 27.80 7.45 25.10L7.45 25.10L12.53 25.10Q12.63 26.39 13.30 27.25Q13.96 28.11 15.07 28.54Q16.19 28.97 17.59 28.97L17.59 28.97Q18.99 28.97 20.02 28.57Q21.06 28.16 21.64 27.43Q22.22 26.69 22.22 25.72L22.22 25.72Q22.22 24.85 21.70 24.26Q21.18 23.67 20.20 23.24Q19.23 22.81 17.83 22.49L17.83 22.49L15.02 21.79Q11.79 21.00 9.96 19.32Q8.14 17.64 8.14 14.87L8.14 14.87Q8.14 12.56 9.38 10.83Q10.61 9.11 12.78 8.15Q14.94 7.19 17.71 7.19L17.71 7.19Q20.53 7.19 22.63 8.16Q24.73 9.13 25.91 10.84Q27.09 12.56 27.12 14.80L27.12 14.80L22.08 14.80Q21.94 13.26 20.77 12.42Q19.60 11.59 17.66 11.59L17.66 11.59Q16.34 11.59 15.40 11.96Q14.46 12.34 13.96 13.00Q13.47 13.67 13.47 14.53L13.47 14.53Q13.47 15.47 14.04 16.09Q14.61 16.71 15.54 17.10Q16.48 17.48 17.55 17.74L17.55 17.74L19.86 18.30Q21.47 18.66 22.85 19.28Q24.23 19.89 25.28 20.79Q26.32 21.69 26.89 22.92Q27.46 24.15 27.46 25.75L27.46 25.75Q27.46 28.06 26.30 29.78Q25.14 31.50 22.94 32.44Q20.73 33.38 17.64 33.38ZM37.46 33.38L37.46 33.38Q34.54 33.38 32.42 32.18Q30.30 30.98 29.16 28.78Q28.03 26.57 28.03 23.55L28.03 23.55Q28.03 20.59 29.15 18.37Q30.28 16.15 32.35 14.90Q34.42 13.65 37.20 13.65L37.20 13.65Q39.08 13.65 40.71 14.25Q42.33 14.85 43.56 16.06Q44.79 17.26 45.48 19.07Q46.18 20.88 46.18 23.34L46.18 23.34L46.18 24.78L30.13 24.78L30.13 21.57L43.66 21.57L41.27 22.42Q41.27 20.93 40.82 19.83Q40.37 18.73 39.47 18.12Q38.57 17.52 37.24 17.52L37.24 17.52Q35.92 17.52 34.99 18.13Q34.06 18.75 33.58 19.80Q33.10 20.85 33.10 22.20L33.10 22.20L33.10 24.47Q33.10 26.13 33.66 27.26Q34.21 28.39 35.21 28.95Q36.21 29.51 37.55 29.51L37.55 29.51Q38.45 29.51 39.19 29.26Q39.92 29.00 40.44 28.50Q40.96 27.99 41.24 27.26L41.24 27.26L45.89 28.13Q45.42 29.70 44.28 30.89Q43.13 32.08 41.42 32.73Q39.70 33.38 37.46 33.38ZM52.53 33L47.40 33L47.40 13.89L52.16 13.89L52.41 18.64L52.04 18.64Q52.48 16.88 53.34 15.77Q54.21 14.66 55.37 14.13Q56.53 13.60 57.81 13.60L57.81 13.60Q59.88 13.60 61.14 14.91Q62.41 16.22 63.01 18.95L63.01 18.95L62.41 18.95Q62.84 17.12 63.80 15.94Q64.77 14.75 66.09 14.18Q67.42 13.60 68.87 13.60L68.87 13.60Q70.63 13.60 72.01 14.37Q73.38 15.14 74.18 16.59Q74.97 18.03 74.97 20.11L74.97 20.11L74.97 33L69.84 33L69.84 21.09Q69.84 19.46 68.96 18.68Q68.08 17.89 66.80 17.89L66.80 17.89Q65.84 17.89 65.14 18.31Q64.43 18.73 64.04 19.48Q63.66 20.23 63.66 21.24L63.66 21.24L63.66 33L58.70 33L58.70 20.95Q58.70 19.55 57.87 18.72Q57.04 17.89 55.73 17.89L55.73 17.89Q54.82 17.89 54.10 18.30Q53.37 18.71 52.95 19.51Q52.53 20.30 52.53 21.45L52.53 21.45L52.53 33ZM82.40 33.38L82.40 33.38Q80.59 33.38 79.15 32.74Q77.70 32.09 76.87 30.82Q76.05 29.55 76.05 27.65L76.05 27.65Q76.05 26.06 76.63 24.98Q77.22 23.91 78.24 23.26Q79.26 22.61 80.55 22.27Q81.84 21.93 83.26 21.79L83.26 21.79Q84.91 21.62 85.93 21.47Q86.95 21.33 87.42 21.01Q87.89 20.70 87.89 20.08L87.89 20.08L87.89 19.99Q87.89 19.17 87.55 18.61Q87.20 18.05 86.54 17.75Q85.87 17.45 84.90 17.45L84.90 17.45Q83.91 17.45 83.17 17.75Q82.44 18.05 81.98 18.54Q81.51 19.04 81.29 19.65L81.29 19.65L76.59 18.87Q77.09 17.21 78.23 16.05Q79.38 14.88 81.08 14.27Q82.78 13.65 84.90 13.65L84.90 13.65Q86.45 13.65 87.91 14.02Q89.36 14.39 90.51 15.16Q91.67 15.93 92.34 17.16Q93.02 18.39 93.02 20.13L93.02 20.13L93.02 33L88.16 33L88.16 30.35L87.99 30.35Q87.53 31.24 86.76 31.91Q85.99 32.59 84.91 32.98Q83.82 33.38 82.40 33.38ZM83.86 29.77L83.86 29.77Q85.07 29.77 85.98 29.29Q86.90 28.81 87.41 27.99Q87.92 27.17 87.92 26.16L87.92 26.16L87.92 24.10Q87.70 24.27 87.24 24.40Q86.78 24.54 86.21 24.64Q85.65 24.75 85.10 24.83Q84.56 24.92 84.13 24.97L84.13 24.97Q83.19 25.10 82.47 25.41Q81.75 25.72 81.36 26.22Q80.97 26.73 80.97 27.51L80.97 27.51Q80.97 28.25 81.34 28.75Q81.72 29.26 82.36 29.51Q83.00 29.77 83.86 29.77ZM100.24 40.14L95.12 40.14L95.12 13.89L100.16 13.89L100.16 17.11L100.40 17.11Q100.75 16.35 101.41 15.55Q102.07 14.75 103.15 14.20Q104.22 13.65 105.85 13.65L105.85 13.65Q107.97 13.65 109.73 14.75Q111.49 15.84 112.54 18.03Q113.59 20.22 113.59 23.48L113.59 23.48Q113.59 26.66 112.56 28.86Q111.54 31.05 109.78 32.19Q108.02 33.32 105.81 33.32L105.81 33.32Q104.26 33.32 103.18 32.79Q102.11 32.27 101.43 31.49Q100.75 30.71 100.40 29.94L100.40 29.94L100.24 29.94L100.24 40.14ZM104.24 29.21L104.24 29.21Q105.57 29.21 106.49 28.47Q107.40 27.74 107.87 26.44Q108.34 25.14 108.34 23.46L108.34 23.46Q108.34 21.79 107.87 20.51Q107.40 19.23 106.50 18.49Q105.59 17.76 104.24 17.76L104.24 17.76Q102.93 17.76 102.00 18.47Q101.08 19.17 100.60 20.45Q100.12 21.72 100.12 23.46L100.12 23.46Q100.12 25.19 100.61 26.48Q101.10 27.77 102.02 28.49Q102.94 29.21 104.24 29.21ZM120.03 21.94L120.03 21.94L120.03 33L114.90 33L114.90 7.54L119.93 7.54L119.93 18.66L119.52 18.66Q120.27 16.27 121.80 14.96Q123.33 13.65 125.76 13.65L125.76 13.65Q127.74 13.65 129.22 14.52Q130.69 15.38 131.51 17.00Q132.32 18.61 132.32 20.85L132.32 20.85L132.32 33L127.19 33L127.19 21.74Q127.19 19.96 126.28 18.95Q125.36 17.94 123.74 17.94L123.74 17.94Q122.66 17.94 121.82 18.41Q120.97 18.88 120.50 19.77Q120.03 20.66 120.03 21.94ZM142.96 33.38L142.96 33.38Q140.09 33.38 137.99 32.14Q135.89 30.90 134.75 28.68Q133.61 26.47 133.61 23.53L133.61 23.53Q133.61 20.56 134.75 18.35Q135.89 16.13 137.99 14.89Q140.09 13.65 142.96 13.65L142.96 13.65Q145.85 13.65 147.94 14.89Q150.04 16.13 151.17 18.35Q152.31 20.56 152.31 23.53L152.31 23.53Q152.31 26.47 151.17 28.68Q150.04 30.90 147.94 32.14Q145.85 33.38 142.96 33.38ZM142.96 29.34L142.96 29.34Q144.33 29.34 145.25 28.58Q146.18 27.82 146.64 26.50Q147.10 25.17 147.10 23.52L147.10 23.52Q147.10 21.82 146.64 20.51Q146.18 19.19 145.25 18.44Q144.33 17.69 142.96 17.69L142.96 17.69Q141.60 17.69 140.68 18.44Q139.77 19.19 139.31 20.51Q138.84 21.82 138.84 23.52L138.84 23.52Q138.84 25.17 139.31 26.50Q139.77 27.82 140.68 28.58Q141.60 29.34 142.96 29.34ZM158.73 33L153.61 33L153.61 13.89L158.56 13.89L158.56 17.23L158.77 17.23Q159.30 15.45 160.54 14.54Q161.78 13.64 163.38 13.64L163.38 13.64Q163.78 13.64 164.23 13.68Q164.68 13.72 165.04 13.81L165.04 13.81L165.04 18.39Q164.70 18.27 164.05 18.20Q163.40 18.13 162.82 18.13L162.82 18.13Q161.66 18.13 160.72 18.64Q159.78 19.14 159.26 20.04Q158.73 20.93 158.73 22.13L158.73 22.13L158.73 33ZM174.22 33.38L174.22 33.38Q171.29 33.38 169.17 32.18Q167.06 30.98 165.92 28.78Q164.78 26.57 164.78 23.55L164.78 23.55Q164.78 20.59 165.91 18.37Q167.04 16.15 169.11 14.90Q171.17 13.65 173.96 13.65L173.96 13.65Q175.84 13.65 177.46 14.25Q179.09 14.85 180.32 16.06Q181.55 17.26 182.24 19.07Q182.93 20.88 182.93 23.34L182.93 23.34L182.93 24.78L166.88 24.78L166.88 21.57L180.42 21.57L178.03 22.42Q178.03 20.93 177.57 19.83Q177.12 18.73 176.22 18.12Q175.33 17.52 173.99 17.52L173.99 17.52Q172.68 17.52 171.75 18.13Q170.82 18.75 170.34 19.80Q169.86 20.85 169.86 22.20L169.86 22.20L169.86 24.47Q169.86 26.13 170.41 27.26Q170.97 28.39 171.97 28.95Q172.97 29.51 174.30 29.51L174.30 29.51Q175.21 29.51 175.94 29.26Q176.68 29.00 177.20 28.50Q177.72 27.99 177.99 27.26L177.99 27.26L182.64 28.13Q182.18 29.70 181.03 30.89Q179.89 32.08 178.17 32.73Q176.45 33.38 174.22 33.38ZM195.51 33L190.29 33L190.29 7.54L200.22 7.54Q203.13 7.54 205.16 8.64Q207.20 9.74 208.26 11.68Q209.33 13.62 209.33 16.13L209.33 16.13Q209.33 18.66 208.25 20.58Q207.16 22.51 205.10 23.59Q203.04 24.68 200.10 24.68L200.10 24.68L193.71 24.68L193.71 20.47L199.27 20.47Q200.87 20.47 201.91 19.92Q202.94 19.36 203.44 18.39Q203.95 17.41 203.95 16.13L203.95 16.13Q203.95 14.85 203.44 13.88Q202.94 12.90 201.90 12.37Q200.85 11.84 199.25 11.84L199.25 11.84L195.51 11.84L195.51 33ZM215.91 33.38L215.91 33.38Q214.10 33.38 212.65 32.74Q211.21 32.09 210.38 30.82Q209.55 29.55 209.55 27.65L209.55 27.65Q209.55 26.06 210.14 24.98Q210.73 23.91 211.75 23.26Q212.76 22.61 214.05 22.27Q215.35 21.93 216.76 21.79L216.76 21.79Q218.42 21.62 219.44 21.47Q220.45 21.33 220.92 21.01Q221.39 20.70 221.39 20.08L221.39 20.08L221.39 19.99Q221.39 19.17 221.05 18.61Q220.71 18.05 220.04 17.75Q219.38 17.45 218.40 17.45L218.40 17.45Q217.41 17.45 216.68 17.75Q215.94 18.05 215.48 18.54Q215.02 19.04 214.80 19.65L214.80 19.65L210.10 18.87Q210.59 17.21 211.74 16.05Q212.88 14.88 214.58 14.27Q216.29 13.65 218.40 13.65L218.40 13.65Q219.96 13.65 221.41 14.02Q222.86 14.39 224.02 15.16Q225.17 15.93 225.85 17.16Q226.52 18.39 226.52 20.13L226.52 20.13L226.52 33L221.67 33L221.67 30.35L221.50 30.35Q221.04 31.24 220.27 31.91Q219.50 32.59 218.41 32.98Q217.33 33.38 215.91 33.38ZM217.36 29.77L217.36 29.77Q218.58 29.77 219.49 29.29Q220.40 28.81 220.92 27.99Q221.43 27.17 221.43 26.16L221.43 26.16L221.43 24.10Q221.21 24.27 220.75 24.40Q220.28 24.54 219.72 24.64Q219.16 24.75 218.61 24.83Q218.06 24.92 217.64 24.97L217.64 24.97Q216.70 25.10 215.98 25.41Q215.26 25.72 214.87 26.22Q214.47 26.73 214.47 27.51L214.47 27.51Q214.47 28.25 214.85 28.75Q215.23 29.26 215.87 29.51Q216.51 29.77 217.36 29.77ZM228.49 39.77L228.49 39.77L229.66 35.91L230.30 36.06Q231.32 36.33 232.13 36.21Q232.93 36.09 233.42 35.56Q233.90 35.03 234.01 34.08L234.01 34.08L234.14 33.05L226.96 13.89L232.42 13.89L235.63 23.81Q236.21 25.69 236.58 27.57Q236.94 29.45 237.42 31.50L237.42 31.50L236.23 31.50Q236.69 29.45 237.15 27.56Q237.61 25.67 238.23 23.81L238.23 23.81L241.58 13.89L246.96 13.89L238.84 35.26Q238.26 36.79 237.35 37.92Q236.45 39.05 235.10 39.67Q233.75 40.28 231.83 40.28L231.83 40.28Q230.81 40.28 229.92 40.14Q229.03 39.99 228.49 39.77Z" />
  </g>
</svg>
